<svg xmlns="http://www.w3.org/2000/svg" xmlns:svg="http://www.w3.org/2000/svg" xmlns:xlink="http://www.w3.org/1999/xlink" id="svg7384" width="200" height="200" version="1.1"><title id="title9167">Gnome Symbolic Icon Theme</title><defs id="defs11"><linearGradient id="linearGradient836"><stop style="stop-color:#62ffff;stop-opacity:1" id="stop832" offset="0"/><stop style="stop-color:#2d3eff;stop-opacity:1" id="stop834" offset="1"/></linearGradient><linearGradient id="linearGradient3780"><stop id="stop3782" offset="0" style="stop-color:#fff;stop-opacity:0"/><stop id="stop3784" offset="1" style="stop-color:#999;stop-opacity:.39459458"/></linearGradient><g id="surface5" clip-path="url(#clip1)"><path id="path3000" d="m 57.4875,20.6375 c 0.7125,1.783333 1.083333,3.758334 1.083333,5.8125 0,8.224999 -6.283333,14.895834 -14.033333,14.895834 -2.262501,0 -4.379166,-0.562501 -6.275,-1.575001 2.133334,5.35 7.1375,9.083333 12.95,9.083333 7.75,0 14.033334,-6.670833 14.033334,-14.895832 0,-5.825001 -3.166667,-10.866667 -7.758334,-13.320834 z m 0,0" style="fill:#eeeeeb;fill-opacity:1;fill-rule:nonzero;stroke:none;stroke-width:1.06666672"/></g><clipPath id="clip1"><rect id="rect2997" width="96" height="96" x="0" y="0"/></clipPath><mask id="mask0"><g id="g2992" style="filter:url(#alpha)"><rect id="rect2994" width="96" height="96" x="0" y="0" style="fill:#000;fill-opacity:.90196102;stroke:none"/></g></mask><filter id="alpha" width="1" height="1" x="0" y="0" filterUnits="objectBoundingBox" style="color-interpolation-filters:sRGB"><feColorMatrix id="feColorMatrix2989" in="SourceGraphic" type="matrix" values="0 0 0 0 1 0 0 0 0 1 0 0 0 0 1 0 0 0 1 0"/></filter><linearGradient id="linearGradient840" x1="100.945" x2="100.998" y1="94.09" y2="-89.941" gradientUnits="userSpaceOnUse" xlink:href="#linearGradient836"/><linearGradient id="linearGradient856" x1="101.13" x2="100.684" y1="89.955" y2="-90.045" gradientUnits="userSpaceOnUse" xlink:href="#linearGradient836"/><linearGradient id="linearGradient4512" x1="105" x2="101" y1="93.9" y2="-91.1" gradientUnits="userSpaceOnUse" xlink:href="#linearGradient836"/><linearGradient id="linearGradient4515" x1="94.5" x2="100.5" y1="109.4" y2="-94.6" gradientUnits="userSpaceOnUse" xlink:href="#linearGradient836"/></defs><metadata id="metadata90"/><g id="layer2" transform="translate(0,97.600012)"><ellipse style="fill:none;fill-opacity:1;stroke:url(#linearGradient840);stroke-width:17.56600952;stroke-linecap:round;stroke-linejoin:round;stroke-miterlimit:4;stroke-dasharray:none;stroke-opacity:1" id="path3785" cx="100" cy="2.4" r="91.217"/><path style="fill:none;fill-opacity:1;stroke:url(#linearGradient856);stroke-width:15.99871635;stroke-linecap:round;stroke-linejoin:round;stroke-miterlimit:4;stroke-dasharray:none;stroke-opacity:1" id="path3011" d="M 132.6215,-33.090245 83.055926,41.596717 70.664546,2.5882402"/><ellipse style="opacity:1;fill:none;fill-opacity:1;stroke:url(#linearGradient4512);stroke-width:15.32871819;stroke-miterlimit:4;stroke-dasharray:none;stroke-opacity:1" id="path4504" cx="100" cy="2.4" r="92.336"/><circle style="opacity:1;fill:none;fill-opacity:1;stroke:url(#linearGradient4515);stroke-width:16.82756615;stroke-miterlimit:4;stroke-dasharray:none;stroke-opacity:1" id="path4506" cx="100" cy="2.4" r="91.586"/></g></svg>