<svg xmlns="http://www.w3.org/2000/svg" xmlns:svg="http://www.w3.org/2000/svg" id="svg7384" width="16" height="16" version="1.1"><metadata id="metadata90"/><title id="title9167">elementary Symbolic Icon Theme</title><defs id="defs7386"><filter id="filter7554" color-interpolation-filters="sRGB"><feBlend id="feBlend7556" in2="BackgroundImage" mode="darken"/></filter><filter id="filter7554-7" color-interpolation-filters="sRGB"><feBlend id="feBlend7556-6" in2="BackgroundImage" mode="darken"/></filter></defs><g id="layer12" transform="translate(-553.00012,-48)" style="display:inline"><path id="path29603" d="m 561.00012,48 c -4.42352,0 -8,3.57648 -8,8 0,4.42352 3.57648,8 8,8 4.42352,0 8,-3.57648 8,-8 0,-4.42352 -3.57648,-8 -8,-8 z m 0,1 c 3.87058,0 7,3.12942 7,7 0,3.87058 -3.12942,7 -7,7 -3.87058,0 -7,-3.12942 -7,-7 0,-3.87058 3.12942,-7 7,-7 z" style="color:#bebebe;text-indent:0;text-transform:none;block-progression:tb;display:inline;overflow:visible;visibility:visible;opacity:.9;fill:#bebebe;fill-opacity:1;fill-rule:nonzero;stroke:none;stroke-width:1;marker:none;enable-background:accumulate"/><g style="font-style:normal;font-weight:400;font-size:5px;line-height:125%;font-family:sans-serif;letter-spacing:0;word-spacing:0;fill:#bebebe;fill-opacity:.90196078;stroke:none;stroke-width:1px;stroke-linecap:butt;stroke-linejoin:miter;stroke-opacity:1" id="text4147"><path style="font-style:normal;font-variant:normal;font-weight:800;font-stretch:normal;font-size:11.25px;font-family:Lato;-inkscape-font-specification:'Lato Ultra-Bold';fill:#bebebe;fill-opacity:.90196078" id="path4152" d="m 561.8889,54.304064 0,5.799375 -1.5525,0 0,-5.799375 1.5525,0 z m 0.18562,-1.648125 q 0,0.196875 -0.0788,0.365625 -0.0788,0.16875 -0.21375,0.298125 -0.12937,0.129375 -0.30937,0.2025 -0.17438,0.07313 -0.37688,0.07313 -0.19125,0 -0.36562,-0.07313 -0.16875,-0.07312 -0.29813,-0.2025 -0.12937,-0.129375 -0.20812,-0.298125 -0.0731,-0.16875 -0.0731,-0.365625 0,-0.196875 0.0731,-0.365625 0.0788,-0.174375 0.20812,-0.30375 0.12938,-0.129375 0.29813,-0.2025 0.17437,-0.07312 0.36562,-0.07312 0.2025,0 0.37688,0.07312 0.18,0.07312 0.30937,0.2025 0.135,0.129375 0.21375,0.30375 0.0788,0.16875 0.0788,0.365625 z"/></g></g></svg>